<?xml version="1.0" encoding="UTF-8" standalone="no"?>
<!-- Created with Inkscape (http://www.inkscape.org/) -->

<svg
   width="1000"
   height="1000"
   viewBox="0 0 264.58333 264.58334"
   version="1.1"
   id="svg5"
   shape-rendering="crispEdges"
   xmlns="http://www.w3.org/2000/svg"
   xmlns:svg="http://www.w3.org/2000/svg">
  <defs
     id="defs2" />
  <g
     id="layer1">
    <g
       id="g8983"
       transform="matrix(0.26458333,0,0,0.26458333,-550.59873,405.20858)" />
    <g
       id="g8985"
       transform="matrix(0.26458333,0,0,0.26458333,-550.59873,405.20858)" />
    <g
       id="g8987"
       transform="matrix(0.26458333,0,0,0.26458333,-550.59873,405.20858)" />
    <g
       id="g8989"
       transform="matrix(0.26458333,0,0,0.26458333,-550.59873,405.20858)" />
    <g
       id="g8991"
       transform="matrix(0.26458333,0,0,0.26458333,-550.59873,405.20858)" />
    <g
       id="g8993"
       transform="matrix(0.26458333,0,0,0.26458333,-550.59873,405.20858)" />
    <g
       id="g8995"
       transform="matrix(0.26458333,0,0,0.26458333,-550.59873,405.20858)" />
    <g
       id="g8997"
       transform="matrix(0.26458333,0,0,0.26458333,-550.59873,405.20858)" />
    <g
       id="g8999"
       transform="matrix(0.26458333,0,0,0.26458333,-550.59873,405.20858)" />
    <g
       id="g9001"
       transform="matrix(0.26458333,0,0,0.26458333,-550.59873,405.20858)" />
    <g
       id="g9003"
       transform="matrix(0.26458333,0,0,0.26458333,-550.59873,405.20858)" />
    <g
       id="g9005"
       transform="matrix(0.26458333,0,0,0.26458333,-550.59873,405.20858)" />
    <g
       id="g9007"
       transform="matrix(0.26458333,0,0,0.26458333,-550.59873,405.20858)" />
    <g
       id="g9009"
       transform="matrix(0.26458333,0,0,0.26458333,-550.59873,405.20858)" />
    <g
       id="g9011"
       transform="matrix(0.26458333,0,0,0.26458333,-550.59873,405.20858)" />
    <g
       id="g9136"
       transform="matrix(2.4010086,18.223615,-18.223615,2.4010086,1607.1332,155.37579)" />
    <g
       id="g9138"
       transform="matrix(2.4010086,18.223615,-18.223615,2.4010086,1607.1332,155.37579)" />
    <g
       id="g9140"
       transform="matrix(2.4010086,18.223615,-18.223615,2.4010086,1607.1332,155.37579)" />
    <g
       id="g9142"
       transform="matrix(2.4010086,18.223615,-18.223615,2.4010086,1607.1332,155.37579)" />
    <g
       id="g9144"
       transform="matrix(2.4010086,18.223615,-18.223615,2.4010086,1607.1332,155.37579)" />
    <g
       id="g9146"
       transform="matrix(2.4010086,18.223615,-18.223615,2.4010086,1607.1332,155.37579)" />
    <g
       id="g9148"
       transform="matrix(2.4010086,18.223615,-18.223615,2.4010086,1607.1332,155.37579)" />
    <g
       id="g9150"
       transform="matrix(2.4010086,18.223615,-18.223615,2.4010086,1607.1332,155.37579)" />
    <g
       id="g9152"
       transform="matrix(2.4010086,18.223615,-18.223615,2.4010086,1607.1332,155.37579)" />
    <g
       id="g9154"
       transform="matrix(2.4010086,18.223615,-18.223615,2.4010086,1607.1332,155.37579)" />
    <g
       id="g9156"
       transform="matrix(2.4010086,18.223615,-18.223615,2.4010086,1607.1332,155.37579)" />
    <g
       id="g9158"
       transform="matrix(2.4010086,18.223615,-18.223615,2.4010086,1607.1332,155.37579)" />
    <g
       id="g9160"
       transform="matrix(2.4010086,18.223615,-18.223615,2.4010086,1607.1332,155.37579)" />
    <g
       id="g9162"
       transform="matrix(2.4010086,18.223615,-18.223615,2.4010086,1607.1332,155.37579)" />
    <g
       id="g9164"
       transform="matrix(2.4010086,18.223615,-18.223615,2.4010086,1607.1332,155.37579)" />
    <g
       id="g9168"
       transform="matrix(2.4010086,18.223615,-18.223615,2.4010086,1607.1332,155.37579)" />
    <g
       id="g9170"
       transform="matrix(2.4010086,18.223615,-18.223615,2.4010086,1607.1332,155.37579)" />
    <g
       id="g9172"
       transform="matrix(2.4010086,18.223615,-18.223615,2.4010086,1607.1332,155.37579)" />
    <g
       id="g9174"
       transform="matrix(2.4010086,18.223615,-18.223615,2.4010086,1607.1332,155.37579)" />
    <g
       id="g9176"
       transform="matrix(2.4010086,18.223615,-18.223615,2.4010086,1607.1332,155.37579)" />
    <g
       id="g9178"
       transform="matrix(2.4010086,18.223615,-18.223615,2.4010086,1607.1332,155.37579)" />
    <g
       id="g9180"
       transform="matrix(2.4010086,18.223615,-18.223615,2.4010086,1607.1332,155.37579)" />
    <g
       id="g9182"
       transform="matrix(2.4010086,18.223615,-18.223615,2.4010086,1607.1332,155.37579)" />
    <g
       id="g9184"
       transform="matrix(2.4010086,18.223615,-18.223615,2.4010086,1607.1332,155.37579)" />
    <g
       id="g9186"
       transform="matrix(2.4010086,18.223615,-18.223615,2.4010086,1607.1332,155.37579)" />
    <g
       id="g9188"
       transform="matrix(2.4010086,18.223615,-18.223615,2.4010086,1607.1332,155.37579)" />
    <g
       id="g9190"
       transform="matrix(2.4010086,18.223615,-18.223615,2.4010086,1607.1332,155.37579)" />
    <g
       id="g9192"
       transform="matrix(2.4010086,18.223615,-18.223615,2.4010086,1607.1332,155.37579)" />
    <g
       id="g9194"
       transform="matrix(2.4010086,18.223615,-18.223615,2.4010086,1607.1332,155.37579)" />
    <g
       id="g9196"
       transform="matrix(2.4010086,18.223615,-18.223615,2.4010086,1607.1332,155.37579)" />
    <g
       id="g9280"
       transform="matrix(-0.56779128,4.837012,-4.837012,-0.56779128,1732.8971,338.61991)" />
    <g
       id="g9282"
       transform="matrix(-0.56779128,4.837012,-4.837012,-0.56779128,1732.8971,338.61991)" />
    <g
       id="g9284"
       transform="matrix(-0.56779128,4.837012,-4.837012,-0.56779128,1732.8971,338.61991)" />
    <g
       id="g9286"
       transform="matrix(-0.56779128,4.837012,-4.837012,-0.56779128,1732.8971,338.61991)" />
    <g
       id="g9288"
       transform="matrix(-0.56779128,4.837012,-4.837012,-0.56779128,1732.8971,338.61991)" />
    <g
       id="g9290"
       transform="matrix(-0.56779128,4.837012,-4.837012,-0.56779128,1732.8971,338.61991)" />
    <g
       id="g9292"
       transform="matrix(-0.56779128,4.837012,-4.837012,-0.56779128,1732.8971,338.61991)" />
    <g
       id="g9294"
       transform="matrix(-0.56779128,4.837012,-4.837012,-0.56779128,1732.8971,338.61991)" />
    <g
       id="g9296"
       transform="matrix(-0.56779128,4.837012,-4.837012,-0.56779128,1732.8971,338.61991)" />
    <g
       id="g9298"
       transform="matrix(-0.56779128,4.837012,-4.837012,-0.56779128,1732.8971,338.61991)" />
    <g
       id="g9300"
       transform="matrix(-0.56779128,4.837012,-4.837012,-0.56779128,1732.8971,338.61991)" />
    <g
       id="g9302"
       transform="matrix(-0.56779128,4.837012,-4.837012,-0.56779128,1732.8971,338.61991)" />
    <g
       id="g9304"
       transform="matrix(-0.56779128,4.837012,-4.837012,-0.56779128,1732.8971,338.61991)" />
    <g
       id="g9306"
       transform="matrix(-0.56779128,4.837012,-4.837012,-0.56779128,1732.8971,338.61991)" />
    <g
       id="g9308"
       transform="matrix(-0.56779128,4.837012,-4.837012,-0.56779128,1732.8971,338.61991)" />
    <g
       id="g9381"
       transform="matrix(0.95430977,0.12308102,-0.12308102,0.95430977,598.2541,372.98957)" />
    <g
       id="g9383"
       transform="matrix(0.95430977,0.12308102,-0.12308102,0.95430977,598.2541,372.98957)" />
    <g
       id="g9385"
       transform="matrix(0.95430977,0.12308102,-0.12308102,0.95430977,598.2541,372.98957)" />
    <g
       id="g9387"
       transform="matrix(0.95430977,0.12308102,-0.12308102,0.95430977,598.2541,372.98957)" />
    <g
       id="g9389"
       transform="matrix(0.95430977,0.12308102,-0.12308102,0.95430977,598.2541,372.98957)" />
    <g
       id="g9391"
       transform="matrix(0.95430977,0.12308102,-0.12308102,0.95430977,598.2541,372.98957)" />
    <g
       id="g9393"
       transform="matrix(0.95430977,0.12308102,-0.12308102,0.95430977,598.2541,372.98957)" />
    <g
       id="g9395"
       transform="matrix(0.95430977,0.12308102,-0.12308102,0.95430977,598.2541,372.98957)" />
    <g
       id="g9397"
       transform="matrix(0.95430977,0.12308102,-0.12308102,0.95430977,598.2541,372.98957)" />
    <g
       id="g9399"
       transform="matrix(0.95430977,0.12308102,-0.12308102,0.95430977,598.2541,372.98957)" />
    <g
       id="g9401"
       transform="matrix(0.95430977,0.12308102,-0.12308102,0.95430977,598.2541,372.98957)" />
    <g
       id="g9403"
       transform="matrix(0.95430977,0.12308102,-0.12308102,0.95430977,598.2541,372.98957)" />
    <g
       id="g9405"
       transform="matrix(0.95430977,0.12308102,-0.12308102,0.95430977,598.2541,372.98957)" />
    <g
       id="g9407"
       transform="matrix(0.95430977,0.12308102,-0.12308102,0.95430977,598.2541,372.98957)" />
    <g
       id="g9409"
       transform="matrix(0.95430977,0.12308102,-0.12308102,0.95430977,598.2541,372.98957)" />
    <g
       id="g1491"
       transform="translate(-3.3977139,1.6536488)">
      <g
         id="g12429"
         transform="matrix(0.11821625,0,0,0.11821625,-88.420169,76.122975)"
         style="stroke:none">
        <path
           id="path8953"
           style="fill:#009807;fill-opacity:1;stroke:none;stroke-width:3.50022"
           d="m 5728.8496,636.3418 c -119.5027,-0.38826 -237.7635,52.92327 -316.2539,155.23437 -94.0176,122.47064 -105.2255,282.59193 -42.9102,413.05473 l -1.0761,1.4023 -795.2969,1036.7441 c -31.3871,40.9934 -43.4647,90.7935 -37.2031,138.3184 6.2615,47.5249 30.8167,92.43 71.7773,124.1016 43.7923,33.7288 97.7891,44.946 148.2227,35.5117 l 186.0019,235.4765 c 25.6214,32.4574 72.7328,37.9877 105.2129,12.3321 l 22.2774,-17.5977 c 4.913,2.7004 10.5095,4.2038 16.3691,3.7852 78.0582,-5.3824 154.9778,-18.4726 230.0332,-38.8321 l -21,-143.0019 54.0606,-42.7031 24.7519,168.459 c 18.1391,-5.9217 36.1158,-12.3961 53.9941,-19.1797 l -26.7441,-182.1035 -10.9336,4.5058 c -3.9164,1.6137 -7.7439,3.413 -11.6387,5.0703 l 351.1758,-277.3984 c 25.5753,-20.2018 34.1475,-53.5938 24.25,-82.7969 l 67.7969,-53.5371 c 26.9246,27.8286 70.7973,31.5891 101.8105,7.0586 33.0906,-26.1215 38.7203,-74.0923 12.5762,-107.1484 l -80.0605,-101.3985 401.9609,-317.5547 0.2266,0.2676 8.1816,10.3555 128.5293,-55.8946 141.4805,-157.3671 -8.1973,-10.377 -82.2129,-104.0605 -8.1992,-10.3594 -185.8691,101.1699 -84.0879,112.1172 8.1445,10.3535 0.2305,0.2481 -402.0137,317.5312 -80.0996,-101.3848 c -26.0871,-33.068 -74.0375,-38.7137 -107.1484,-12.5761 -31.0296,24.51 -37.5345,68.0772 -16.6934,100.6777 l -67.8008,53.5742 c -26.0988,-16.3892 -60.5864,-15.7858 -86.1621,4.416 l -182.877,144.4571 432.2286,-563.4922 5.623,-8.3789 c 137.0982,19.4256 280.487,-33.5909 370.7969,-151.2285 89.4274,-116.8908 103.9385,-267.3565 51.0058,-394.15043 l -193.2793,251.93943 -225.8281,-29.6679 -87.0781,-210.44731 193.125,-252.05664 c -17.0101,-2.26102 -34.1079,-3.41329 -51.1797,-3.46875 z m 875.1367,1225.5117 c -9.7017,0.6631 -18.5812,6.0163 -23.6308,14.543 l -76.3262,128.3691 c -4.8189,8.058 -5.5255,17.9395 -1.9531,26.6094 l 11.3789,27.6152 -61.3125,25.2637 26.8535,182.7676 102.7266,-42.3281 11.3789,27.6171 c 3.5845,8.6992 11.0523,15.2118 20.1504,17.5391 l 144.5996,37.332 c 10.9636,2.8495 22.5525,-0.7647 29.9922,-9.289 7.4289,-8.5503 9.4061,-20.5436 5.0937,-31.0098 l -159.3027,-386.6269 c -4.3015,-10.4403 -14.1522,-17.5565 -25.4493,-18.3946 -1.4107,-0.1011 -2.8132,-0.1025 -4.1992,-0.01 z m -208.7578,245.8653 -53.543,22.0605 26.8477,182.7715 53.5488,-22.0645 z m -110.4629,45.5136 -53.5508,22.0645 26.8555,182.7676 53.543,-22.0625 z m -110.4629,45.5137 -53.5507,22.0644 26.8476,182.7715 53.5508,-22.0644 z m -110.4687,45.5176 -53.5449,22.0625 26.8476,182.7695 53.5508,-22.0645 z m -110.4629,45.5136 -53.5508,22.0645 26.8535,182.7676 53.543,-22.0606 z m -1260.6758,15.3536 c 36.2253,-1.0863 67.9232,25.335 72.8399,61.7656 l -31.5684,24.9355 c -17.7085,13.9879 -27.3344,34.3716 -28.3242,55.2754 -0.5374,0.083 -1.0518,0.2216 -1.5938,0.293 -39.1128,5.2233 -75.0389,-22.2769 -80.2207,-61.6055 -5.1364,-38.9842 22.4324,-74.9198 61.5547,-80.0742 2.4537,-0.3233 4.8925,-0.5173 7.3125,-0.5898 z m 1150.2129,30.1621 -53.5508,22.0644 26.8535,182.7676 53.543,-22.0625 z m -110.4648,45.5136 -53.5489,22.0645 26.8535,182.7676 53.543,-22.0625 z m -110.4688,45.5176 -53.5449,22.0606 26.8476,182.7714 53.545,-22.0624 z m -110.4629,45.5137 -53.5508,22.0644 26.8536,182.7676 53.5449,-22.0625 z"
           transform="scale(0.26458333)" />
        <path
           id="path9375"
           style="fill:#002798;fill-opacity:1;stroke:none;stroke-width:3.63671"
           d="m 4647.7559,615.98828 c -4.7215,0.2127 -9.4908,1.13246 -14.17,2.82227 l -168.1621,60.73047 c -24.9558,9.01232 -37.8794,36.54817 -28.8672,61.5039 l 14.2032,39.33203 -82.1719,29.67578 -14.2031,-39.33398 c -9.0127,-24.95577 -36.5481,-37.87951 -61.5039,-28.86719 l -263.9629,95.33008 c -51.3355,18.53341 -96.1981,51.54575 -129.17,95.03711 -113.4062,149.59665 -171.6702,333.77215 -164.9492,521.38085 0.4608,12.7987 9.5971,23.6327 22.1367,26.2402 12.5382,2.6108 25.2397,-3.6777 30.7676,-15.2324 50.0504,-104.6144 139.2085,-185.376 248.252,-224.8672 l 68.998,-24.9863 415.6992,1151.1016 a 431.24999,431.24999 0 0 0 216.2539,450.2832 431.24999,431.24999 0 0 0 586,-168.9903 431.24999,431.24999 0 0 0 -168.9902,-586 431.24999,431.24999 0 0 0 -420.1914,2.1036 l -343.7051,-951.7481 32.1953,-11.6601 c 24.9279,-9.0296 37.8313,-36.5471 28.8243,-61.4883 l -14.2188,-39.37503 82.1719,-29.67578 14.2031,39.33201 c 9.0127,24.9557 36.5481,37.8795 61.5039,28.8672 l 168.1602,-60.72656 c 24.9558,-9.01232 37.8794,-36.54814 28.8672,-61.5039 l -96.6387,-267.59571 c -7.3225,-20.27656 -26.8725,-32.61113 -47.332,-31.68945 z"
           transform="scale(0.26458333)" />
      </g>
      <text
         xml:space="preserve"
         style="font-style:normal;font-variant:normal;font-weight:900;font-stretch:normal;font-size:15.7516px;line-height:44.05;font-family:Poppins;-inkscape-font-specification:'Poppins, Heavy';font-variant-ligatures:normal;font-variant-caps:normal;font-variant-numeric:normal;font-variant-east-asian:normal;letter-spacing:0px;stroke-width:0.393793"
         x="131.57124"
         y="136.47002"
         id="text9023"><tspan
           id="tspan9021"
           style="font-style:normal;font-variant:normal;font-weight:900;font-stretch:normal;font-size:15.7516px;font-family:Poppins;-inkscape-font-specification:'Poppins, Heavy';font-variant-ligatures:normal;font-variant-caps:normal;font-variant-numeric:normal;font-variant-east-asian:normal;stroke-width:0.393793"
           x="131.57124"
           y="136.47002"
           dx="0 0 0 0 0 0 0.21751811"><tspan
   style="fill:#002798;fill-opacity:1;stroke-width:0.393793"
   id="tspan10031"
   dx="0 0 0 0.14777032 -0.44331098 0.39957094">M<tspan
   style="word-spacing:0px;stroke-width:0.393793"
   id="tspan25163"
   dx="-0.32154822">a</tspan>yura</tspan> <tspan
   style="fill:#009807;fill-opacity:1;stroke-width:0.393793"
   id="tspan22682"
   dx="0 -0.42203203 0.25652927 0.16550291">Tools</tspan></tspan></text>
    </g>
  </g>
</svg>
